<svg xmlns="http://www.w3.org/2000/svg" xmlns:xlink="http://www.w3.org/1999/xlink" width="85" zoomAndPan="magnify" viewBox="0 0 63.75 37.5" height="50" preserveAspectRatio="xMidYMid meet" version="1.0"><defs><g/></defs><g fill="#000000" fill-opacity="0.302"><g transform="translate(7.444927, 30.63284)"><g><path d="M 47.890625 -26.75 C 48.046875 -26.613281 48.1875 -26.457031 48.3125 -26.28125 C 48.445312 -26.113281 48.535156 -25.914062 48.578125 -25.6875 C 48.617188 -25.425781 48.523438 -25.226562 48.296875 -25.09375 C 48.160156 -25.019531 48.023438 -25.007812 47.890625 -25.0625 C 47.765625 -25.113281 47.675781 -25.210938 47.625 -25.359375 C 47.46875 -25.765625 47.238281 -26.085938 46.9375 -26.328125 C 46.644531 -26.566406 46.320312 -26.773438 45.96875 -26.953125 C 45.1875 -27.359375 44.378906 -27.691406 43.546875 -27.953125 C 42.722656 -28.210938 41.894531 -28.4375 41.0625 -28.625 C 39.65625 -28.914062 37.785156 -29.109375 35.453125 -29.203125 C 33.117188 -29.296875 30.519531 -29.257812 27.65625 -29.09375 C 24.800781 -28.9375 21.875 -28.628906 18.875 -28.171875 C 15.875 -27.722656 13.003906 -27.101562 10.265625 -26.3125 C 7.523438 -25.519531 5.117188 -24.53125 3.046875 -23.34375 C 0.972656 -22.164062 -0.570312 -20.769531 -1.59375 -19.15625 C -2.445312 -17.757812 -2.617188 -16.285156 -2.109375 -14.734375 C -1.734375 -13.671875 -1.203125 -12.707031 -0.515625 -11.84375 C 0.515625 -10.53125 1.660156 -9.332031 2.921875 -8.25 C 3.972656 -7.28125 5.039062 -6.316406 6.125 -5.359375 C 7.164062 -4.429688 8.210938 -3.492188 9.265625 -2.546875 C 10.429688 -1.460938 11.578125 -0.375 12.703125 0.71875 C 12.804688 0.820312 12.914062 0.925781 13.03125 1.03125 C 13.644531 1.59375 14.179688 2.222656 14.640625 2.921875 C 15.117188 3.710938 15.210938 4.320312 14.921875 4.75 C 14.628906 5.1875 14.070312 5.484375 13.25 5.640625 C 12.425781 5.796875 11.46875 5.84375 10.375 5.78125 C 9.289062 5.726562 8.195312 5.59375 7.09375 5.375 C 5.988281 5.164062 5.007812 4.910156 4.15625 4.609375 C 3.300781 4.316406 2.695312 4.015625 2.34375 3.703125 C 1.632812 3.046875 1.585938 2.351562 2.203125 1.625 C 2.867188 0.875 3.675781 0.328125 4.625 -0.015625 C 6 -0.546875 7.394531 -0.585938 8.8125 -0.140625 C 9.082031 -0.0351562 9.335938 0.09375 9.578125 0.25 C 9.609375 0.257812 9.632812 0.273438 9.65625 0.296875 C 9.71875 0.335938 9.757812 0.394531 9.78125 0.46875 C 9.8125 0.539062 9.800781 0.617188 9.75 0.703125 C 9.632812 0.835938 9.5 0.878906 9.34375 0.828125 C 9.1875 0.765625 9.039062 0.695312 8.90625 0.625 C 7.925781 0.132812 6.921875 0.03125 5.890625 0.3125 C 4.859375 0.59375 3.988281 1.15625 3.28125 2 C 2.96875 2.40625 2.953125 2.757812 3.234375 3.0625 C 3.515625 3.375 3.9375 3.632812 4.5 3.84375 C 5.070312 4.0625 5.644531 4.226562 6.21875 4.34375 C 6.800781 4.46875 7.238281 4.550781 7.53125 4.59375 C 7.582031 4.59375 7.617188 4.597656 7.640625 4.609375 C 7.703125 4.609375 7.769531 4.617188 7.84375 4.640625 C 8.207031 4.710938 8.707031 4.796875 9.34375 4.890625 C 9.976562 4.984375 10.628906 5.046875 11.296875 5.078125 C 11.972656 5.109375 12.550781 5.0625 13.03125 4.9375 C 13.519531 4.8125 13.796875 4.570312 13.859375 4.21875 C 13.921875 3.875 13.648438 3.351562 13.046875 2.65625 C 12.410156 1.925781 11.738281 1.210938 11.03125 0.515625 C 9.257812 -1.191406 7.445312 -2.847656 5.59375 -4.453125 C 4.925781 -5.054688 4.257812 -5.65625 3.59375 -6.25 C 2.476562 -7.257812 1.382812 -8.285156 0.3125 -9.328125 C -0.6875 -10.296875 -1.566406 -11.359375 -2.328125 -12.515625 C -2.867188 -13.359375 -3.25 -14.265625 -3.46875 -15.234375 C -3.789062 -16.816406 -3.5 -18.285156 -2.59375 -19.640625 C -1.582031 -21.140625 -0.128906 -22.46875 1.765625 -23.625 C 3.671875 -24.789062 5.878906 -25.785156 8.390625 -26.609375 C 10.898438 -27.429688 13.570312 -28.097656 16.40625 -28.609375 C 19.238281 -29.117188 22.101562 -29.476562 25 -29.6875 C 27.894531 -29.90625 30.671875 -29.976562 33.328125 -29.90625 C 35.984375 -29.84375 38.390625 -29.644531 40.546875 -29.3125 C 42.703125 -28.976562 44.46875 -28.515625 45.84375 -27.921875 C 46.570312 -27.640625 47.253906 -27.25 47.890625 -26.75 Z M 47.890625 -26.75 "/></g></g></g><g fill="#000000" fill-opacity="0.502"><g transform="translate(7.252869, 30.4933)"><g><path d="M 47.890625 -26.75 C 48.046875 -26.613281 48.1875 -26.457031 48.3125 -26.28125 C 48.445312 -26.113281 48.535156 -25.914062 48.578125 -25.6875 C 48.617188 -25.425781 48.523438 -25.226562 48.296875 -25.09375 C 48.160156 -25.019531 48.023438 -25.007812 47.890625 -25.0625 C 47.765625 -25.113281 47.675781 -25.210938 47.625 -25.359375 C 47.46875 -25.765625 47.238281 -26.085938 46.9375 -26.328125 C 46.644531 -26.566406 46.320312 -26.773438 45.96875 -26.953125 C 45.1875 -27.359375 44.378906 -27.691406 43.546875 -27.953125 C 42.722656 -28.210938 41.894531 -28.4375 41.0625 -28.625 C 39.65625 -28.914062 37.785156 -29.109375 35.453125 -29.203125 C 33.117188 -29.296875 30.519531 -29.257812 27.65625 -29.09375 C 24.800781 -28.9375 21.875 -28.628906 18.875 -28.171875 C 15.875 -27.722656 13.003906 -27.101562 10.265625 -26.3125 C 7.523438 -25.519531 5.117188 -24.53125 3.046875 -23.34375 C 0.972656 -22.164062 -0.570312 -20.769531 -1.59375 -19.15625 C -2.445312 -17.757812 -2.617188 -16.285156 -2.109375 -14.734375 C -1.734375 -13.671875 -1.203125 -12.707031 -0.515625 -11.84375 C 0.515625 -10.53125 1.660156 -9.332031 2.921875 -8.25 C 3.972656 -7.28125 5.039062 -6.316406 6.125 -5.359375 C 7.164062 -4.429688 8.210938 -3.492188 9.265625 -2.546875 C 10.429688 -1.460938 11.578125 -0.375 12.703125 0.71875 C 12.804688 0.820312 12.914062 0.925781 13.03125 1.03125 C 13.644531 1.59375 14.179688 2.222656 14.640625 2.921875 C 15.117188 3.710938 15.210938 4.320312 14.921875 4.75 C 14.628906 5.1875 14.070312 5.484375 13.25 5.640625 C 12.425781 5.796875 11.46875 5.84375 10.375 5.78125 C 9.289062 5.726562 8.195312 5.59375 7.09375 5.375 C 5.988281 5.164062 5.007812 4.910156 4.15625 4.609375 C 3.300781 4.316406 2.695312 4.015625 2.34375 3.703125 C 1.632812 3.046875 1.585938 2.351562 2.203125 1.625 C 2.867188 0.875 3.675781 0.328125 4.625 -0.015625 C 6 -0.546875 7.394531 -0.585938 8.8125 -0.140625 C 9.082031 -0.0351562 9.335938 0.09375 9.578125 0.25 C 9.609375 0.257812 9.632812 0.273438 9.65625 0.296875 C 9.71875 0.335938 9.757812 0.394531 9.78125 0.46875 C 9.8125 0.539062 9.800781 0.617188 9.75 0.703125 C 9.632812 0.835938 9.5 0.878906 9.34375 0.828125 C 9.1875 0.765625 9.039062 0.695312 8.90625 0.625 C 7.925781 0.132812 6.921875 0.03125 5.890625 0.3125 C 4.859375 0.59375 3.988281 1.15625 3.28125 2 C 2.96875 2.40625 2.953125 2.757812 3.234375 3.0625 C 3.515625 3.375 3.9375 3.632812 4.5 3.84375 C 5.070312 4.0625 5.644531 4.226562 6.21875 4.34375 C 6.800781 4.46875 7.238281 4.550781 7.53125 4.59375 C 7.582031 4.59375 7.617188 4.597656 7.640625 4.609375 C 7.703125 4.609375 7.769531 4.617188 7.84375 4.640625 C 8.207031 4.710938 8.707031 4.796875 9.34375 4.890625 C 9.976562 4.984375 10.628906 5.046875 11.296875 5.078125 C 11.972656 5.109375 12.550781 5.0625 13.03125 4.9375 C 13.519531 4.8125 13.796875 4.570312 13.859375 4.21875 C 13.921875 3.875 13.648438 3.351562 13.046875 2.65625 C 12.410156 1.925781 11.738281 1.210938 11.03125 0.515625 C 9.257812 -1.191406 7.445312 -2.847656 5.59375 -4.453125 C 4.925781 -5.054688 4.257812 -5.65625 3.59375 -6.25 C 2.476562 -7.257812 1.382812 -8.285156 0.3125 -9.328125 C -0.6875 -10.296875 -1.566406 -11.359375 -2.328125 -12.515625 C -2.867188 -13.359375 -3.25 -14.265625 -3.46875 -15.234375 C -3.789062 -16.816406 -3.5 -18.285156 -2.59375 -19.640625 C -1.582031 -21.140625 -0.128906 -22.46875 1.765625 -23.625 C 3.671875 -24.789062 5.878906 -25.785156 8.390625 -26.609375 C 10.898438 -27.429688 13.570312 -28.097656 16.40625 -28.609375 C 19.238281 -29.117188 22.101562 -29.476562 25 -29.6875 C 27.894531 -29.90625 30.671875 -29.976562 33.328125 -29.90625 C 35.984375 -29.84375 38.390625 -29.644531 40.546875 -29.3125 C 42.703125 -28.976562 44.46875 -28.515625 45.84375 -27.921875 C 46.570312 -27.640625 47.253906 -27.25 47.890625 -26.75 Z M 47.890625 -26.75 "/></g></g></g><g fill="#ffffff" fill-opacity="1"><g transform="translate(7.060808, 30.353761)"><g><path d="M 47.890625 -26.75 C 48.046875 -26.613281 48.1875 -26.457031 48.3125 -26.28125 C 48.445312 -26.113281 48.535156 -25.914062 48.578125 -25.6875 C 48.617188 -25.425781 48.523438 -25.226562 48.296875 -25.09375 C 48.160156 -25.019531 48.023438 -25.007812 47.890625 -25.0625 C 47.765625 -25.113281 47.675781 -25.210938 47.625 -25.359375 C 47.46875 -25.765625 47.238281 -26.085938 46.9375 -26.328125 C 46.644531 -26.566406 46.320312 -26.773438 45.96875 -26.953125 C 45.1875 -27.359375 44.378906 -27.691406 43.546875 -27.953125 C 42.722656 -28.210938 41.894531 -28.4375 41.0625 -28.625 C 39.65625 -28.914062 37.785156 -29.109375 35.453125 -29.203125 C 33.117188 -29.296875 30.519531 -29.257812 27.65625 -29.09375 C 24.800781 -28.9375 21.875 -28.628906 18.875 -28.171875 C 15.875 -27.722656 13.003906 -27.101562 10.265625 -26.3125 C 7.523438 -25.519531 5.117188 -24.53125 3.046875 -23.34375 C 0.972656 -22.164062 -0.570312 -20.769531 -1.59375 -19.15625 C -2.445312 -17.757812 -2.617188 -16.285156 -2.109375 -14.734375 C -1.734375 -13.671875 -1.203125 -12.707031 -0.515625 -11.84375 C 0.515625 -10.53125 1.660156 -9.332031 2.921875 -8.25 C 3.972656 -7.28125 5.039062 -6.316406 6.125 -5.359375 C 7.164062 -4.429688 8.210938 -3.492188 9.265625 -2.546875 C 10.429688 -1.460938 11.578125 -0.375 12.703125 0.71875 C 12.804688 0.820312 12.914062 0.925781 13.03125 1.03125 C 13.644531 1.59375 14.179688 2.222656 14.640625 2.921875 C 15.117188 3.710938 15.210938 4.320312 14.921875 4.75 C 14.628906 5.1875 14.070312 5.484375 13.25 5.640625 C 12.425781 5.796875 11.46875 5.84375 10.375 5.78125 C 9.289062 5.726562 8.195312 5.59375 7.09375 5.375 C 5.988281 5.164062 5.007812 4.910156 4.15625 4.609375 C 3.300781 4.316406 2.695312 4.015625 2.34375 3.703125 C 1.632812 3.046875 1.585938 2.351562 2.203125 1.625 C 2.867188 0.875 3.675781 0.328125 4.625 -0.015625 C 6 -0.546875 7.394531 -0.585938 8.8125 -0.140625 C 9.082031 -0.0351562 9.335938 0.09375 9.578125 0.25 C 9.609375 0.257812 9.632812 0.273438 9.65625 0.296875 C 9.71875 0.335938 9.757812 0.394531 9.78125 0.46875 C 9.8125 0.539062 9.800781 0.617188 9.75 0.703125 C 9.632812 0.835938 9.5 0.878906 9.34375 0.828125 C 9.1875 0.765625 9.039062 0.695312 8.90625 0.625 C 7.925781 0.132812 6.921875 0.03125 5.890625 0.3125 C 4.859375 0.59375 3.988281 1.15625 3.28125 2 C 2.96875 2.40625 2.953125 2.757812 3.234375 3.0625 C 3.515625 3.375 3.9375 3.632812 4.5 3.84375 C 5.070312 4.0625 5.644531 4.226562 6.21875 4.34375 C 6.800781 4.46875 7.238281 4.550781 7.53125 4.59375 C 7.582031 4.59375 7.617188 4.597656 7.640625 4.609375 C 7.703125 4.609375 7.769531 4.617188 7.84375 4.640625 C 8.207031 4.710938 8.707031 4.796875 9.34375 4.890625 C 9.976562 4.984375 10.628906 5.046875 11.296875 5.078125 C 11.972656 5.109375 12.550781 5.0625 13.03125 4.9375 C 13.519531 4.8125 13.796875 4.570312 13.859375 4.21875 C 13.921875 3.875 13.648438 3.351562 13.046875 2.65625 C 12.410156 1.925781 11.738281 1.210938 11.03125 0.515625 C 9.257812 -1.191406 7.445312 -2.847656 5.59375 -4.453125 C 4.925781 -5.054688 4.257812 -5.65625 3.59375 -6.25 C 2.476562 -7.257812 1.382812 -8.285156 0.3125 -9.328125 C -0.6875 -10.296875 -1.566406 -11.359375 -2.328125 -12.515625 C -2.867188 -13.359375 -3.25 -14.265625 -3.46875 -15.234375 C -3.789062 -16.816406 -3.5 -18.285156 -2.59375 -19.640625 C -1.582031 -21.140625 -0.128906 -22.46875 1.765625 -23.625 C 3.671875 -24.789062 5.878906 -25.785156 8.390625 -26.609375 C 10.898438 -27.429688 13.570312 -28.097656 16.40625 -28.609375 C 19.238281 -29.117188 22.101562 -29.476562 25 -29.6875 C 27.894531 -29.90625 30.671875 -29.976562 33.328125 -29.90625 C 35.984375 -29.84375 38.390625 -29.644531 40.546875 -29.3125 C 42.703125 -28.976562 44.46875 -28.515625 45.84375 -27.921875 C 46.570312 -27.640625 47.253906 -27.25 47.890625 -26.75 Z M 47.890625 -26.75 "/></g></g></g><g fill="#000000" fill-opacity="0.302"><g transform="translate(21.648589, 31.001147)"><g><path d="M 11.328125 -6.5 C 11.160156 -6.351562 10.984375 -6.21875 10.796875 -6.09375 C 10.203125 -5.726562 9.664062 -5.4375 9.1875 -5.21875 C 8.707031 -5 8.144531 -4.78125 7.5 -4.5625 C 6.53125 -4.269531 5.90625 -4.332031 5.625 -4.75 C 5.351562 -5.175781 5.3125 -5.757812 5.5 -6.5 C 5.757812 -7.5625 5.910156 -8.335938 5.953125 -8.828125 C 5.992188 -9.328125 5.828125 -9.5 5.453125 -9.34375 C 5.085938 -9.1875 4.421875 -8.675781 3.453125 -7.8125 C 2.109375 -6.644531 0.957031 -5.316406 0 -3.828125 C -0.125 -3.617188 -0.273438 -3.445312 -0.453125 -3.3125 C -0.628906 -3.1875 -0.847656 -3.125 -1.109375 -3.125 C -1.359375 -3.125 -1.535156 -3.1875 -1.640625 -3.3125 C -1.753906 -3.445312 -1.757812 -3.625 -1.65625 -3.84375 C -1.113281 -5.0625 -0.550781 -6.265625 0.03125 -7.453125 C 1.007812 -9.515625 1.976562 -11.570312 2.9375 -13.625 C 3.65625 -15.15625 4.363281 -16.6875 5.0625 -18.21875 C 5.488281 -19.125 5.910156 -20.03125 6.328125 -20.9375 C 6.359375 -21.007812 6.398438 -21.085938 6.453125 -21.171875 C 6.484375 -21.273438 6.523438 -21.375 6.578125 -21.46875 C 6.628906 -21.570312 6.6875 -21.6875 6.75 -21.8125 C 6.8125 -21.914062 6.914062 -22 7.0625 -22.0625 C 7.21875 -22.125 7.375 -22.164062 7.53125 -22.1875 C 7.6875 -22.207031 7.804688 -22.195312 7.890625 -22.15625 C 8.003906 -22.070312 8.066406 -21.984375 8.078125 -21.890625 C 8.097656 -21.796875 8.082031 -21.695312 8.03125 -21.59375 C 8.019531 -21.582031 8.015625 -21.550781 8.015625 -21.5 C 7.828125 -20.957031 7.628906 -20.425781 7.421875 -19.90625 C 6.242188 -17.0625 4.957031 -14.257812 3.5625 -11.5 C 3.457031 -11.3125 3.335938 -11.085938 3.203125 -10.828125 C 2.992188 -10.453125 2.800781 -10.085938 2.625 -9.734375 C 2.445312 -9.378906 2.390625 -9.140625 2.453125 -9.015625 C 2.515625 -8.890625 2.789062 -8.984375 3.28125 -9.296875 C 3.425781 -9.398438 3.5625 -9.5 3.6875 -9.59375 C 4.070312 -9.851562 4.457031 -10.101562 4.84375 -10.34375 C 5.175781 -10.5625 5.546875 -10.679688 5.953125 -10.703125 C 6.929688 -10.765625 7.484375 -10.320312 7.609375 -9.375 C 7.648438 -9 7.632812 -8.625 7.5625 -8.25 C 7.488281 -7.875 7.398438 -7.503906 7.296875 -7.140625 C 7.273438 -7.035156 7.257812 -6.9375 7.25 -6.84375 C 7.070312 -6.207031 7.113281 -5.84375 7.375 -5.75 C 7.632812 -5.65625 7.992188 -5.707031 8.453125 -5.90625 C 8.910156 -6.101562 9.378906 -6.335938 9.859375 -6.609375 C 10.179688 -6.773438 10.460938 -6.921875 10.703125 -7.046875 C 10.953125 -7.171875 11.140625 -7.222656 11.265625 -7.203125 C 11.484375 -7.160156 11.582031 -7.066406 11.5625 -6.921875 C 11.550781 -6.785156 11.472656 -6.644531 11.328125 -6.5 Z M 11.328125 -6.5 "/></g></g></g><g fill="#000000" fill-opacity="0.302"><g transform="translate(33.49203, 31.001147)"><g><path d="M 5.546875 -5.875 C 5.046875 -5.289062 4.457031 -4.75 3.78125 -4.25 C 3.101562 -3.757812 2.335938 -3.425781 1.484375 -3.25 C 0.628906 -3.082031 -0.0351562 -3.144531 -0.515625 -3.4375 C -0.992188 -3.738281 -1.085938 -4.398438 -0.796875 -5.421875 C -0.421875 -6.484375 0.0859375 -7.492188 0.734375 -8.453125 C 0.890625 -8.660156 1.101562 -8.804688 1.375 -8.890625 C 1.582031 -8.929688 1.765625 -8.894531 1.921875 -8.78125 C 2.078125 -8.664062 2.132812 -8.519531 2.09375 -8.34375 C 1.957031 -8.007812 1.800781 -7.675781 1.625 -7.34375 C 1.457031 -7.007812 1.347656 -6.789062 1.296875 -6.6875 C 0.972656 -6.09375 0.742188 -5.46875 0.609375 -4.8125 C 0.609375 -4.4375 1.101562 -4.410156 2.09375 -4.734375 C 3.09375 -5.066406 4.0625 -5.664062 5 -6.53125 C 5.945312 -7.40625 6.398438 -7.660156 6.359375 -7.296875 C 6.316406 -6.941406 6.046875 -6.46875 5.546875 -5.875 Z M 3.109375 -10.546875 C 3.066406 -10.515625 2.972656 -10.472656 2.828125 -10.421875 C 2.679688 -10.367188 2.523438 -10.328125 2.359375 -10.296875 C 2.203125 -10.273438 2.078125 -10.300781 1.984375 -10.375 C 1.890625 -10.457031 1.882812 -10.609375 1.96875 -10.828125 C 2.113281 -11.222656 2.265625 -11.566406 2.421875 -11.859375 C 2.585938 -12.148438 2.800781 -12.472656 3.0625 -12.828125 C 3.238281 -12.984375 3.421875 -13.066406 3.609375 -13.078125 C 3.804688 -13.097656 3.96875 -13.046875 4.09375 -12.921875 C 4.226562 -12.804688 4.269531 -12.648438 4.21875 -12.453125 C 4.007812 -11.710938 3.640625 -11.078125 3.109375 -10.546875 Z M 3.109375 -10.546875 "/></g></g></g><g fill="#000000" fill-opacity="0.302"><g transform="translate(40.132534, 31.001147)"><g><path d="M 11.046875 -6.96875 C 11.203125 -6.78125 11.019531 -6.4375 10.5 -5.9375 C 9.976562 -5.445312 9.421875 -5.035156 8.828125 -4.703125 C 8.242188 -4.367188 7.566406 -4.035156 6.796875 -3.703125 C 6.285156 -3.472656 5.738281 -3.394531 5.15625 -3.46875 C 4.582031 -3.550781 4.296875 -3.898438 4.296875 -4.515625 C 4.296875 -5.140625 4.441406 -5.757812 4.734375 -6.375 C 5.015625 -7.007812 5.070312 -7.332031 4.90625 -7.34375 C 4.75 -7.363281 4.414062 -7.210938 3.90625 -6.890625 C 2.570312 -6.015625 1.335938 -5.015625 0.203125 -3.890625 C -0.109375 -3.515625 -0.503906 -3.3125 -0.984375 -3.28125 C -1.222656 -3.28125 -1.410156 -3.351562 -1.546875 -3.5 C -1.679688 -3.65625 -1.695312 -3.820312 -1.59375 -4 C -0.769531 -5.519531 0.0546875 -7.019531 0.890625 -8.5 C 1.078125 -8.800781 1.359375 -8.988281 1.734375 -9.0625 C 1.890625 -9.09375 2.035156 -9.046875 2.171875 -8.921875 C 2.304688 -8.796875 2.375 -8.65625 2.375 -8.5 C 2.351562 -8.351562 2.289062 -8.175781 2.1875 -7.96875 C 2.144531 -7.84375 2.101562 -7.722656 2.0625 -7.609375 C 2.019531 -7.503906 2.003906 -7.414062 2.015625 -7.34375 C 2.023438 -7.269531 2.082031 -7.242188 2.1875 -7.265625 C 2.332031 -7.335938 2.472656 -7.414062 2.609375 -7.5 C 2.960938 -7.707031 3.300781 -7.90625 3.625 -8.09375 C 3.914062 -8.257812 4.21875 -8.40625 4.53125 -8.53125 C 4.851562 -8.664062 5.1875 -8.757812 5.53125 -8.8125 C 6.082031 -8.84375 6.472656 -8.710938 6.703125 -8.421875 C 6.941406 -8.140625 6.972656 -7.742188 6.796875 -7.234375 C 6.609375 -6.765625 6.410156 -6.300781 6.203125 -5.84375 C 5.953125 -5.414062 5.910156 -5.085938 6.078125 -4.859375 C 6.242188 -4.640625 7.023438 -4.898438 8.421875 -5.640625 L 9.453125 -6.25 C 10.441406 -6.882812 10.972656 -7.125 11.046875 -6.96875 Z M 11.046875 -6.96875 "/></g></g></g><g fill="#000000" fill-opacity="0.302"><g transform="translate(51.557507, 31.001147)"><g><path d="M 7.953125 -5.359375 C 7.410156 -4.828125 6.78125 -4.375 6.0625 -4 C 5.351562 -3.625 4.753906 -3.375 4.265625 -3.25 C 3.785156 -3.132812 3.289062 -3.070312 2.78125 -3.0625 C 1.957031 -3.019531 1.203125 -3.128906 0.515625 -3.390625 C -0.609375 -3.847656 -1 -4.71875 -0.65625 -6 C -0.332031 -7.101562 0.320312 -7.96875 1.3125 -8.59375 C 2.3125 -9.21875 3.34375 -9.519531 4.40625 -9.5 C 4.40625 -9.5 4.414062 -9.5 4.4375 -9.5 C 4.707031 -9.519531 4.960938 -9.503906 5.203125 -9.453125 C 5.609375 -9.296875 5.867188 -9.050781 5.984375 -8.71875 C 6.097656 -8.382812 6.023438 -8.015625 5.765625 -7.609375 C 5.171875 -6.703125 4.359375 -6.195312 3.328125 -6.09375 C 2.648438 -6.03125 2 -6.066406 1.375 -6.203125 C 1.25 -6.210938 1.140625 -6.175781 1.046875 -6.09375 C 0.953125 -6.007812 0.894531 -5.910156 0.875 -5.796875 C 0.6875 -4.992188 0.9375 -4.476562 1.625 -4.25 C 2.457031 -3.96875 3.328125 -3.96875 4.234375 -4.25 C 5.273438 -4.582031 6.265625 -5.195312 7.203125 -6.09375 C 8.140625 -7 8.679688 -7.421875 8.828125 -7.359375 C 8.972656 -7.296875 9.015625 -7.125 8.953125 -6.84375 C 8.828125 -6.382812 8.492188 -5.890625 7.953125 -5.359375 Z M 2.015625 -7.609375 C 1.953125 -7.535156 1.910156 -7.457031 1.890625 -7.375 C 1.867188 -7.300781 1.898438 -7.234375 1.984375 -7.171875 C 2.304688 -6.984375 2.65625 -6.914062 3.03125 -6.96875 C 3.414062 -7.019531 3.738281 -7.164062 4 -7.40625 C 4.269531 -7.644531 4.390625 -7.9375 4.359375 -8.28125 C 4.328125 -8.394531 4.257812 -8.46875 4.15625 -8.5 C 4.050781 -8.53125 3.945312 -8.539062 3.84375 -8.53125 C 3.15625 -8.40625 2.546875 -8.097656 2.015625 -7.609375 Z M 2.015625 -7.609375 "/></g></g></g><g fill="#000000" fill-opacity="0.502"><g transform="translate(21.359548, 30.791147)"><g><path d="M 11.328125 -6.5 C 11.160156 -6.351562 10.984375 -6.21875 10.796875 -6.09375 C 10.203125 -5.726562 9.664062 -5.4375 9.1875 -5.21875 C 8.707031 -5 8.144531 -4.78125 7.5 -4.5625 C 6.53125 -4.269531 5.90625 -4.332031 5.625 -4.75 C 5.351562 -5.175781 5.3125 -5.757812 5.5 -6.5 C 5.757812 -7.5625 5.910156 -8.335938 5.953125 -8.828125 C 5.992188 -9.328125 5.828125 -9.5 5.453125 -9.34375 C 5.085938 -9.1875 4.421875 -8.675781 3.453125 -7.8125 C 2.109375 -6.644531 0.957031 -5.316406 0 -3.828125 C -0.125 -3.617188 -0.273438 -3.445312 -0.453125 -3.3125 C -0.628906 -3.1875 -0.847656 -3.125 -1.109375 -3.125 C -1.359375 -3.125 -1.535156 -3.1875 -1.640625 -3.3125 C -1.753906 -3.445312 -1.757812 -3.625 -1.65625 -3.84375 C -1.113281 -5.0625 -0.550781 -6.265625 0.03125 -7.453125 C 1.007812 -9.515625 1.976562 -11.570312 2.9375 -13.625 C 3.65625 -15.15625 4.363281 -16.6875 5.0625 -18.21875 C 5.488281 -19.125 5.910156 -20.03125 6.328125 -20.9375 C 6.359375 -21.007812 6.398438 -21.085938 6.453125 -21.171875 C 6.484375 -21.273438 6.523438 -21.375 6.578125 -21.46875 C 6.628906 -21.570312 6.6875 -21.6875 6.75 -21.8125 C 6.8125 -21.914062 6.914062 -22 7.0625 -22.0625 C 7.21875 -22.125 7.375 -22.164062 7.53125 -22.1875 C 7.6875 -22.207031 7.804688 -22.195312 7.890625 -22.15625 C 8.003906 -22.070312 8.066406 -21.984375 8.078125 -21.890625 C 8.097656 -21.796875 8.082031 -21.695312 8.03125 -21.59375 C 8.019531 -21.582031 8.015625 -21.550781 8.015625 -21.5 C 7.828125 -20.957031 7.628906 -20.425781 7.421875 -19.90625 C 6.242188 -17.0625 4.957031 -14.257812 3.5625 -11.5 C 3.457031 -11.3125 3.335938 -11.085938 3.203125 -10.828125 C 2.992188 -10.453125 2.800781 -10.085938 2.625 -9.734375 C 2.445312 -9.378906 2.390625 -9.140625 2.453125 -9.015625 C 2.515625 -8.890625 2.789062 -8.984375 3.28125 -9.296875 C 3.425781 -9.398438 3.5625 -9.5 3.6875 -9.59375 C 4.070312 -9.851562 4.457031 -10.101562 4.84375 -10.34375 C 5.175781 -10.5625 5.546875 -10.679688 5.953125 -10.703125 C 6.929688 -10.765625 7.484375 -10.320312 7.609375 -9.375 C 7.648438 -9 7.632812 -8.625 7.5625 -8.25 C 7.488281 -7.875 7.398438 -7.503906 7.296875 -7.140625 C 7.273438 -7.035156 7.257812 -6.9375 7.25 -6.84375 C 7.070312 -6.207031 7.113281 -5.84375 7.375 -5.75 C 7.632812 -5.65625 7.992188 -5.707031 8.453125 -5.90625 C 8.910156 -6.101562 9.378906 -6.335938 9.859375 -6.609375 C 10.179688 -6.773438 10.460938 -6.921875 10.703125 -7.046875 C 10.953125 -7.171875 11.140625 -7.222656 11.265625 -7.203125 C 11.484375 -7.160156 11.582031 -7.066406 11.5625 -6.921875 C 11.550781 -6.785156 11.472656 -6.644531 11.328125 -6.5 Z M 11.328125 -6.5 "/></g></g></g><g fill="#000000" fill-opacity="0.502"><g transform="translate(33.202989, 30.791147)"><g><path d="M 5.546875 -5.875 C 5.046875 -5.289062 4.457031 -4.75 3.78125 -4.25 C 3.101562 -3.757812 2.335938 -3.425781 1.484375 -3.25 C 0.628906 -3.082031 -0.0351562 -3.144531 -0.515625 -3.4375 C -0.992188 -3.738281 -1.085938 -4.398438 -0.796875 -5.421875 C -0.421875 -6.484375 0.0859375 -7.492188 0.734375 -8.453125 C 0.890625 -8.660156 1.101562 -8.804688 1.375 -8.890625 C 1.582031 -8.929688 1.765625 -8.894531 1.921875 -8.78125 C 2.078125 -8.664062 2.132812 -8.519531 2.09375 -8.34375 C 1.957031 -8.007812 1.800781 -7.675781 1.625 -7.34375 C 1.457031 -7.007812 1.347656 -6.789062 1.296875 -6.6875 C 0.972656 -6.09375 0.742188 -5.46875 0.609375 -4.8125 C 0.609375 -4.4375 1.101562 -4.410156 2.09375 -4.734375 C 3.09375 -5.066406 4.0625 -5.664062 5 -6.53125 C 5.945312 -7.40625 6.398438 -7.660156 6.359375 -7.296875 C 6.316406 -6.941406 6.046875 -6.46875 5.546875 -5.875 Z M 3.109375 -10.546875 C 3.066406 -10.515625 2.972656 -10.472656 2.828125 -10.421875 C 2.679688 -10.367188 2.523438 -10.328125 2.359375 -10.296875 C 2.203125 -10.273438 2.078125 -10.300781 1.984375 -10.375 C 1.890625 -10.457031 1.882812 -10.609375 1.96875 -10.828125 C 2.113281 -11.222656 2.265625 -11.566406 2.421875 -11.859375 C 2.585938 -12.148438 2.800781 -12.472656 3.0625 -12.828125 C 3.238281 -12.984375 3.421875 -13.066406 3.609375 -13.078125 C 3.804688 -13.097656 3.96875 -13.046875 4.09375 -12.921875 C 4.226562 -12.804688 4.269531 -12.648438 4.21875 -12.453125 C 4.007812 -11.710938 3.640625 -11.078125 3.109375 -10.546875 Z M 3.109375 -10.546875 "/></g></g></g><g fill="#000000" fill-opacity="0.502"><g transform="translate(39.843492, 30.791147)"><g><path d="M 11.046875 -6.96875 C 11.203125 -6.78125 11.019531 -6.4375 10.5 -5.9375 C 9.976562 -5.445312 9.421875 -5.035156 8.828125 -4.703125 C 8.242188 -4.367188 7.566406 -4.035156 6.796875 -3.703125 C 6.285156 -3.472656 5.738281 -3.394531 5.15625 -3.46875 C 4.582031 -3.550781 4.296875 -3.898438 4.296875 -4.515625 C 4.296875 -5.140625 4.441406 -5.757812 4.734375 -6.375 C 5.015625 -7.007812 5.070312 -7.332031 4.90625 -7.34375 C 4.75 -7.363281 4.414062 -7.210938 3.90625 -6.890625 C 2.570312 -6.015625 1.335938 -5.015625 0.203125 -3.890625 C -0.109375 -3.515625 -0.503906 -3.3125 -0.984375 -3.28125 C -1.222656 -3.28125 -1.410156 -3.351562 -1.546875 -3.5 C -1.679688 -3.65625 -1.695312 -3.820312 -1.59375 -4 C -0.769531 -5.519531 0.0546875 -7.019531 0.890625 -8.5 C 1.078125 -8.800781 1.359375 -8.988281 1.734375 -9.0625 C 1.890625 -9.09375 2.035156 -9.046875 2.171875 -8.921875 C 2.304688 -8.796875 2.375 -8.65625 2.375 -8.5 C 2.351562 -8.351562 2.289062 -8.175781 2.1875 -7.96875 C 2.144531 -7.84375 2.101562 -7.722656 2.0625 -7.609375 C 2.019531 -7.503906 2.003906 -7.414062 2.015625 -7.34375 C 2.023438 -7.269531 2.082031 -7.242188 2.1875 -7.265625 C 2.332031 -7.335938 2.472656 -7.414062 2.609375 -7.5 C 2.960938 -7.707031 3.300781 -7.90625 3.625 -8.09375 C 3.914062 -8.257812 4.21875 -8.40625 4.53125 -8.53125 C 4.851562 -8.664062 5.1875 -8.757812 5.53125 -8.8125 C 6.082031 -8.84375 6.472656 -8.710938 6.703125 -8.421875 C 6.941406 -8.140625 6.972656 -7.742188 6.796875 -7.234375 C 6.609375 -6.765625 6.410156 -6.300781 6.203125 -5.84375 C 5.953125 -5.414062 5.910156 -5.085938 6.078125 -4.859375 C 6.242188 -4.640625 7.023438 -4.898438 8.421875 -5.640625 L 9.453125 -6.25 C 10.441406 -6.882812 10.972656 -7.125 11.046875 -6.96875 Z M 11.046875 -6.96875 "/></g></g></g><g fill="#000000" fill-opacity="0.502"><g transform="translate(51.268465, 30.791147)"><g><path d="M 7.953125 -5.359375 C 7.410156 -4.828125 6.78125 -4.375 6.0625 -4 C 5.351562 -3.625 4.753906 -3.375 4.265625 -3.25 C 3.785156 -3.132812 3.289062 -3.070312 2.78125 -3.0625 C 1.957031 -3.019531 1.203125 -3.128906 0.515625 -3.390625 C -0.609375 -3.847656 -1 -4.71875 -0.65625 -6 C -0.332031 -7.101562 0.320312 -7.96875 1.3125 -8.59375 C 2.3125 -9.21875 3.34375 -9.519531 4.40625 -9.5 C 4.40625 -9.5 4.414062 -9.5 4.4375 -9.5 C 4.707031 -9.519531 4.960938 -9.503906 5.203125 -9.453125 C 5.609375 -9.296875 5.867188 -9.050781 5.984375 -8.71875 C 6.097656 -8.382812 6.023438 -8.015625 5.765625 -7.609375 C 5.171875 -6.703125 4.359375 -6.195312 3.328125 -6.09375 C 2.648438 -6.03125 2 -6.066406 1.375 -6.203125 C 1.25 -6.210938 1.140625 -6.175781 1.046875 -6.09375 C 0.953125 -6.007812 0.894531 -5.910156 0.875 -5.796875 C 0.6875 -4.992188 0.9375 -4.476562 1.625 -4.25 C 2.457031 -3.96875 3.328125 -3.96875 4.234375 -4.25 C 5.273438 -4.582031 6.265625 -5.195312 7.203125 -6.09375 C 8.140625 -7 8.679688 -7.421875 8.828125 -7.359375 C 8.972656 -7.296875 9.015625 -7.125 8.953125 -6.84375 C 8.828125 -6.382812 8.492188 -5.890625 7.953125 -5.359375 Z M 2.015625 -7.609375 C 1.953125 -7.535156 1.910156 -7.457031 1.890625 -7.375 C 1.867188 -7.300781 1.898438 -7.234375 1.984375 -7.171875 C 2.304688 -6.984375 2.65625 -6.914062 3.03125 -6.96875 C 3.414062 -7.019531 3.738281 -7.164062 4 -7.40625 C 4.269531 -7.644531 4.390625 -7.9375 4.359375 -8.28125 C 4.328125 -8.394531 4.257812 -8.46875 4.15625 -8.5 C 4.050781 -8.53125 3.945312 -8.539062 3.84375 -8.53125 C 3.15625 -8.40625 2.546875 -8.097656 2.015625 -7.609375 Z M 2.015625 -7.609375 "/></g></g></g><g fill="#ffffff" fill-opacity="1"><g transform="translate(21.070508, 30.581147)"><g><path d="M 11.328125 -6.5 C 11.160156 -6.351562 10.984375 -6.21875 10.796875 -6.09375 C 10.203125 -5.726562 9.664062 -5.4375 9.1875 -5.21875 C 8.707031 -5 8.144531 -4.78125 7.5 -4.5625 C 6.53125 -4.269531 5.90625 -4.332031 5.625 -4.75 C 5.351562 -5.175781 5.3125 -5.757812 5.5 -6.5 C 5.757812 -7.5625 5.910156 -8.335938 5.953125 -8.828125 C 5.992188 -9.328125 5.828125 -9.5 5.453125 -9.34375 C 5.085938 -9.1875 4.421875 -8.675781 3.453125 -7.8125 C 2.109375 -6.644531 0.957031 -5.316406 0 -3.828125 C -0.125 -3.617188 -0.273438 -3.445312 -0.453125 -3.3125 C -0.628906 -3.1875 -0.847656 -3.125 -1.109375 -3.125 C -1.359375 -3.125 -1.535156 -3.1875 -1.640625 -3.3125 C -1.753906 -3.445312 -1.757812 -3.625 -1.65625 -3.84375 C -1.113281 -5.0625 -0.550781 -6.265625 0.03125 -7.453125 C 1.007812 -9.515625 1.976562 -11.570312 2.9375 -13.625 C 3.65625 -15.15625 4.363281 -16.6875 5.0625 -18.21875 C 5.488281 -19.125 5.910156 -20.03125 6.328125 -20.9375 C 6.359375 -21.007812 6.398438 -21.085938 6.453125 -21.171875 C 6.484375 -21.273438 6.523438 -21.375 6.578125 -21.46875 C 6.628906 -21.570312 6.6875 -21.6875 6.75 -21.8125 C 6.8125 -21.914062 6.914062 -22 7.0625 -22.0625 C 7.21875 -22.125 7.375 -22.164062 7.53125 -22.1875 C 7.6875 -22.207031 7.804688 -22.195312 7.890625 -22.15625 C 8.003906 -22.070312 8.066406 -21.984375 8.078125 -21.890625 C 8.097656 -21.796875 8.082031 -21.695312 8.03125 -21.59375 C 8.019531 -21.582031 8.015625 -21.550781 8.015625 -21.5 C 7.828125 -20.957031 7.628906 -20.425781 7.421875 -19.90625 C 6.242188 -17.0625 4.957031 -14.257812 3.5625 -11.5 C 3.457031 -11.3125 3.335938 -11.085938 3.203125 -10.828125 C 2.992188 -10.453125 2.800781 -10.085938 2.625 -9.734375 C 2.445312 -9.378906 2.390625 -9.140625 2.453125 -9.015625 C 2.515625 -8.890625 2.789062 -8.984375 3.28125 -9.296875 C 3.425781 -9.398438 3.5625 -9.5 3.6875 -9.59375 C 4.070312 -9.851562 4.457031 -10.101562 4.84375 -10.34375 C 5.175781 -10.5625 5.546875 -10.679688 5.953125 -10.703125 C 6.929688 -10.765625 7.484375 -10.320312 7.609375 -9.375 C 7.648438 -9 7.632812 -8.625 7.5625 -8.25 C 7.488281 -7.875 7.398438 -7.503906 7.296875 -7.140625 C 7.273438 -7.035156 7.257812 -6.9375 7.25 -6.84375 C 7.070312 -6.207031 7.113281 -5.84375 7.375 -5.75 C 7.632812 -5.65625 7.992188 -5.707031 8.453125 -5.90625 C 8.910156 -6.101562 9.378906 -6.335938 9.859375 -6.609375 C 10.179688 -6.773438 10.460938 -6.921875 10.703125 -7.046875 C 10.953125 -7.171875 11.140625 -7.222656 11.265625 -7.203125 C 11.484375 -7.160156 11.582031 -7.066406 11.5625 -6.921875 C 11.550781 -6.785156 11.472656 -6.644531 11.328125 -6.5 Z M 11.328125 -6.5 "/></g></g></g><g fill="#ffffff" fill-opacity="1"><g transform="translate(32.913949, 30.581147)"><g><path d="M 5.546875 -5.875 C 5.046875 -5.289062 4.457031 -4.75 3.78125 -4.25 C 3.101562 -3.757812 2.335938 -3.425781 1.484375 -3.25 C 0.628906 -3.082031 -0.0351562 -3.144531 -0.515625 -3.4375 C -0.992188 -3.738281 -1.085938 -4.398438 -0.796875 -5.421875 C -0.421875 -6.484375 0.0859375 -7.492188 0.734375 -8.453125 C 0.890625 -8.660156 1.101562 -8.804688 1.375 -8.890625 C 1.582031 -8.929688 1.765625 -8.894531 1.921875 -8.78125 C 2.078125 -8.664062 2.132812 -8.519531 2.09375 -8.34375 C 1.957031 -8.007812 1.800781 -7.675781 1.625 -7.34375 C 1.457031 -7.007812 1.347656 -6.789062 1.296875 -6.6875 C 0.972656 -6.09375 0.742188 -5.46875 0.609375 -4.8125 C 0.609375 -4.4375 1.101562 -4.410156 2.09375 -4.734375 C 3.09375 -5.066406 4.0625 -5.664062 5 -6.53125 C 5.945312 -7.40625 6.398438 -7.660156 6.359375 -7.296875 C 6.316406 -6.941406 6.046875 -6.46875 5.546875 -5.875 Z M 3.109375 -10.546875 C 3.066406 -10.515625 2.972656 -10.472656 2.828125 -10.421875 C 2.679688 -10.367188 2.523438 -10.328125 2.359375 -10.296875 C 2.203125 -10.273438 2.078125 -10.300781 1.984375 -10.375 C 1.890625 -10.457031 1.882812 -10.609375 1.96875 -10.828125 C 2.113281 -11.222656 2.265625 -11.566406 2.421875 -11.859375 C 2.585938 -12.148438 2.800781 -12.472656 3.0625 -12.828125 C 3.238281 -12.984375 3.421875 -13.066406 3.609375 -13.078125 C 3.804688 -13.097656 3.96875 -13.046875 4.09375 -12.921875 C 4.226562 -12.804688 4.269531 -12.648438 4.21875 -12.453125 C 4.007812 -11.710938 3.640625 -11.078125 3.109375 -10.546875 Z M 3.109375 -10.546875 "/></g></g></g><g fill="#ffffff" fill-opacity="1"><g transform="translate(39.554452, 30.581147)"><g><path d="M 11.046875 -6.96875 C 11.203125 -6.78125 11.019531 -6.4375 10.5 -5.9375 C 9.976562 -5.445312 9.421875 -5.035156 8.828125 -4.703125 C 8.242188 -4.367188 7.566406 -4.035156 6.796875 -3.703125 C 6.285156 -3.472656 5.738281 -3.394531 5.15625 -3.46875 C 4.582031 -3.550781 4.296875 -3.898438 4.296875 -4.515625 C 4.296875 -5.140625 4.441406 -5.757812 4.734375 -6.375 C 5.015625 -7.007812 5.070312 -7.332031 4.90625 -7.34375 C 4.75 -7.363281 4.414062 -7.210938 3.90625 -6.890625 C 2.570312 -6.015625 1.335938 -5.015625 0.203125 -3.890625 C -0.109375 -3.515625 -0.503906 -3.3125 -0.984375 -3.28125 C -1.222656 -3.28125 -1.410156 -3.351562 -1.546875 -3.5 C -1.679688 -3.65625 -1.695312 -3.820312 -1.59375 -4 C -0.769531 -5.519531 0.0546875 -7.019531 0.890625 -8.5 C 1.078125 -8.800781 1.359375 -8.988281 1.734375 -9.0625 C 1.890625 -9.09375 2.035156 -9.046875 2.171875 -8.921875 C 2.304688 -8.796875 2.375 -8.65625 2.375 -8.5 C 2.351562 -8.351562 2.289062 -8.175781 2.1875 -7.96875 C 2.144531 -7.84375 2.101562 -7.722656 2.0625 -7.609375 C 2.019531 -7.503906 2.003906 -7.414062 2.015625 -7.34375 C 2.023438 -7.269531 2.082031 -7.242188 2.1875 -7.265625 C 2.332031 -7.335938 2.472656 -7.414062 2.609375 -7.5 C 2.960938 -7.707031 3.300781 -7.90625 3.625 -8.09375 C 3.914062 -8.257812 4.21875 -8.40625 4.53125 -8.53125 C 4.851562 -8.664062 5.1875 -8.757812 5.53125 -8.8125 C 6.082031 -8.84375 6.472656 -8.710938 6.703125 -8.421875 C 6.941406 -8.140625 6.972656 -7.742188 6.796875 -7.234375 C 6.609375 -6.765625 6.410156 -6.300781 6.203125 -5.84375 C 5.953125 -5.414062 5.910156 -5.085938 6.078125 -4.859375 C 6.242188 -4.640625 7.023438 -4.898438 8.421875 -5.640625 L 9.453125 -6.25 C 10.441406 -6.882812 10.972656 -7.125 11.046875 -6.96875 Z M 11.046875 -6.96875 "/></g></g></g><g fill="#ffffff" fill-opacity="1"><g transform="translate(50.979426, 30.581147)"><g><path d="M 7.953125 -5.359375 C 7.410156 -4.828125 6.78125 -4.375 6.0625 -4 C 5.351562 -3.625 4.753906 -3.375 4.265625 -3.25 C 3.785156 -3.132812 3.289062 -3.070312 2.78125 -3.0625 C 1.957031 -3.019531 1.203125 -3.128906 0.515625 -3.390625 C -0.609375 -3.847656 -1 -4.71875 -0.65625 -6 C -0.332031 -7.101562 0.320312 -7.96875 1.3125 -8.59375 C 2.3125 -9.21875 3.34375 -9.519531 4.40625 -9.5 C 4.40625 -9.5 4.414062 -9.5 4.4375 -9.5 C 4.707031 -9.519531 4.960938 -9.503906 5.203125 -9.453125 C 5.609375 -9.296875 5.867188 -9.050781 5.984375 -8.71875 C 6.097656 -8.382812 6.023438 -8.015625 5.765625 -7.609375 C 5.171875 -6.703125 4.359375 -6.195312 3.328125 -6.09375 C 2.648438 -6.03125 2 -6.066406 1.375 -6.203125 C 1.25 -6.210938 1.140625 -6.175781 1.046875 -6.09375 C 0.953125 -6.007812 0.894531 -5.910156 0.875 -5.796875 C 0.6875 -4.992188 0.9375 -4.476562 1.625 -4.25 C 2.457031 -3.96875 3.328125 -3.96875 4.234375 -4.25 C 5.273438 -4.582031 6.265625 -5.195312 7.203125 -6.09375 C 8.140625 -7 8.679688 -7.421875 8.828125 -7.359375 C 8.972656 -7.296875 9.015625 -7.125 8.953125 -6.84375 C 8.828125 -6.382812 8.492188 -5.890625 7.953125 -5.359375 Z M 2.015625 -7.609375 C 1.953125 -7.535156 1.910156 -7.457031 1.890625 -7.375 C 1.867188 -7.300781 1.898438 -7.234375 1.984375 -7.171875 C 2.304688 -6.984375 2.65625 -6.914062 3.03125 -6.96875 C 3.414062 -7.019531 3.738281 -7.164062 4 -7.40625 C 4.269531 -7.644531 4.390625 -7.9375 4.359375 -8.28125 C 4.328125 -8.394531 4.257812 -8.46875 4.15625 -8.5 C 4.050781 -8.53125 3.945312 -8.539062 3.84375 -8.53125 C 3.15625 -8.40625 2.546875 -8.097656 2.015625 -7.609375 Z M 2.015625 -7.609375 "/></g></g></g><g fill="#000000" fill-opacity="0.502"><g transform="translate(60.592441, 30.791147)"><g/></g></g><g fill="#ffffff" fill-opacity="1"><g transform="translate(60.303401, 30.581147)"><g/></g></g></svg>